<svg xmlns="http://www.w3.org/2000/svg" xmlns:xlink="http://www.w3.org/1999/xlink" viewBox="0 0 221.6 155.6"><defs><style>.cls-1{fill:#fff;}.cls-2{fill:url(#linear-gradient);}.cls-3{fill:url(#Nueva_muestra_de_degra_copia_4);}</style><linearGradient id="linear-gradient" x1="30.87" y1="93.31" x2="203.76" y2="0.45" gradientUnits="userSpaceOnUse"><stop offset="0" stop-color="#9d5524"/><stop offset="0.01" stop-color="#a76027"/><stop offset="0.03" stop-color="#c47f31"/><stop offset="0.05" stop-color="#db9739"/><stop offset="0.07" stop-color="#eba83f"/><stop offset="0.09" stop-color="#f5b342"/><stop offset="0.12" stop-color="#f8b643"/><stop offset="0.26" stop-color="#dc8827"/><stop offset="0.3" stop-color="#e69d36"/><stop offset="0.37" stop-color="#f6be4c"/><stop offset="0.4" stop-color="#fcca55"/><stop offset="0.43" stop-color="#f9c350"/><stop offset="0.47" stop-color="#f1b040"/><stop offset="0.52" stop-color="#e49128"/><stop offset="0.53" stop-color="#e28d25"/><stop offset="0.58" stop-color="#eea93b"/><stop offset="0.62" stop-color="#f6bc4b"/><stop offset="0.65" stop-color="#f9c350"/><stop offset="0.7" stop-color="#f0b043"/><stop offset="0.77" stop-color="#dc8827"/><stop offset="0.78" stop-color="#df8e2b"/><stop offset="0.84" stop-color="#efaf41"/><stop offset="0.88" stop-color="#f5bb49"/><stop offset="1" stop-color="#9d5524"/></linearGradient><linearGradient id="Nueva_muestra_de_degra_copia_4" x1="16.29" y1="14.45" x2="178.26" y2="82.39" gradientUnits="userSpaceOnUse"><stop offset="0" stop-color="#9d5524"/><stop offset="0.01" stop-color="#a76027"/><stop offset="0.03" stop-color="#c47f31"/><stop offset="0.05" stop-color="#db9739"/><stop offset="0.08" stop-color="#eba83f"/><stop offset="0.1" stop-color="#f5b342"/><stop offset="0.14" stop-color="#f8b643"/><stop offset="0.31" stop-color="#dc8827"/><stop offset="0.36" stop-color="#e69d36"/><stop offset="0.44" stop-color="#f6be4c"/><stop offset="0.49" stop-color="#fcca55"/><stop offset="0.55" stop-color="#f9c350"/><stop offset="0.63" stop-color="#f1b040"/><stop offset="0.74" stop-color="#e49128"/><stop offset="0.75" stop-color="#e28d25"/><stop offset="0.87" stop-color="#dc8827"/><stop offset="0.9" stop-color="#ca7926"/><stop offset="0.96" stop-color="#a95f25"/><stop offset="1" stop-color="#9d5524"/></linearGradient></defs><title>Asset 2</title><g id="Layer_2" data-name="Layer 2"><g id="Layer_1-2" data-name="Layer 1"><path class="cls-1" d="M18.4,155.6H15.18l-3.45-10.74L8.28,155.6H5.06L0,139.5H3.22l3.45,10.74,3.45-10.74h3.22l3.45,10.74,3.45-10.74h3.22Z"/><path class="cls-1" d="M35.65,155.6V139.5h3.22v16.1Z"/><path class="cls-1" d="M65.89,155.6H57a5.27,5.27,0,0,1-1.94-.35,4.72,4.72,0,0,1-1.53-1,4.42,4.42,0,0,1-1-1.53,5.13,5.13,0,0,1-.36-1.95v-6.44a5.11,5.11,0,0,1,.36-1.94,4.42,4.42,0,0,1,1-1.53,4.56,4.56,0,0,1,1.53-1A5.08,5.08,0,0,1,57,139.5h8.85v3.22H57a1.43,1.43,0,0,0-1.61,1.61v1.61H65.89v3.22H55.43v1.61A1.42,1.42,0,0,0,57,152.38h8.85Z"/><path class="cls-1" d="M93.72,155.6H90.5V144.33a1.42,1.42,0,0,0-1.61-1.61H84.06a1.5,1.5,0,0,0-1.6,1.61V155.6H79.23V139.5h3.23v.26a5.4,5.4,0,0,1,1.6-.26h4.83a5.14,5.14,0,0,1,1.93.37,4.59,4.59,0,0,1,1.52,1,4.77,4.77,0,0,1,1,1.53,5,5,0,0,1,.36,1.92Z"/><path class="cls-1" d="M121.55,155.6h-9.66a5.31,5.31,0,0,1-1.94-.35,4.72,4.72,0,0,1-1.53-1,4.56,4.56,0,0,1-1-1.53,5.13,5.13,0,0,1-.36-1.95v-6.44a5.11,5.11,0,0,1,.36-1.94,4.46,4.46,0,0,1,2.53-2.53,5.11,5.11,0,0,1,1.94-.36h9.66v3.22h-9.66a1.43,1.43,0,0,0-1.61,1.61v6.44a1.42,1.42,0,0,0,1.61,1.61h9.66Z"/><path class="cls-1" d="M146.16,155.6v-6.44h-8v6.44h-3.22V139.5h3.22v6.44h8V139.5h3.22v16.1Z"/><path class="cls-1" d="M177.21,155.6H174v-3.22h-8.05v3.22h-3.22V144.33a5.11,5.11,0,0,1,.36-1.94,4.46,4.46,0,0,1,2.53-2.53,5.11,5.11,0,0,1,1.94-.36h4.83a5.05,5.05,0,0,1,1.92.37,4.54,4.54,0,0,1,1.53,1,4.77,4.77,0,0,1,1,1.53,5,5,0,0,1,.36,1.92ZM174,149.16v-4.83a1.42,1.42,0,0,0-1.61-1.61h-4.83a1.43,1.43,0,0,0-1.61,1.61v4.83Z"/><path class="cls-1" d="M190.55,155.6V139.5h3.22v16.1Z"/><path class="cls-1" d="M221.6,155.6h-3.22V144.33a1.42,1.42,0,0,0-1.61-1.61h-4.83a1.51,1.51,0,0,0-1.61,1.61V155.6h-3.22V139.5h3.22v.26a5.52,5.52,0,0,1,1.61-.26h4.83a5.05,5.05,0,0,1,1.92.37,4.64,4.64,0,0,1,1.53,1,4.77,4.77,0,0,1,1,1.53,5,5,0,0,1,.36,1.92Z"/><path class="cls-2" d="M152.94,9.41l-18.63,32.8L110.82,0,87.33,42.21,68.7,9.41H11.9L80.39,128.12l30.43-54.65,30.42,54.65L209.74,9.41ZM110.82,42.07,80.09,97.29,40.53,26.24H59.41L77.77,57.45,71.36,68.31l8.4,14.9L110.82,27.4l31.05,55.81,8.4-14.9-6.4-10.86,18.35-31.21h18.89L141.54,97.29Z"/><path class="cls-3" d="M154.1,11.32,134.29,46.2,110.84,4.06h0L87.35,46.2,67.53,11.32H15.59L80.37,124.06l30.45-54.7,30.45,54.7L206.05,11.32Zm-43.28,34.6L80.09,101.18l-43.87-77H60.55L80.09,57.36,73.67,68.25l6.14,10.88,31-55.72,31,55.72L148,68.25l-6.42-10.89,19.54-33.21h24.33l-43.87,77Z"/></g></g></svg>