<svg xmlns="http://www.w3.org/2000/svg" xmlns:xlink="http://www.w3.org/1999/xlink" viewBox="0 0 221.6 155.29"><defs><style>.cls-1{fill:url(#linear-gradient);}.cls-2{fill:url(#Nueva_muestra_de_degra_copia_4);}.cls-3{fill:#231f20;}</style><linearGradient id="linear-gradient" x1="29.83" y1="93.31" x2="202.71" y2="0.45" gradientUnits="userSpaceOnUse"><stop offset="0" stop-color="#9d5524"/><stop offset="0.01" stop-color="#a76027"/><stop offset="0.03" stop-color="#c47f31"/><stop offset="0.05" stop-color="#db9739"/><stop offset="0.07" stop-color="#eba83f"/><stop offset="0.09" stop-color="#f5b342"/><stop offset="0.12" stop-color="#f8b643"/><stop offset="0.26" stop-color="#dc8827"/><stop offset="0.3" stop-color="#e69d36"/><stop offset="0.37" stop-color="#f6be4c"/><stop offset="0.4" stop-color="#fcca55"/><stop offset="0.43" stop-color="#f9c350"/><stop offset="0.47" stop-color="#f1b040"/><stop offset="0.52" stop-color="#e49128"/><stop offset="0.53" stop-color="#e28d25"/><stop offset="0.58" stop-color="#eea93b"/><stop offset="0.62" stop-color="#f6bc4b"/><stop offset="0.65" stop-color="#f9c350"/><stop offset="0.7" stop-color="#f0b043"/><stop offset="0.77" stop-color="#dc8827"/><stop offset="0.78" stop-color="#df8e2b"/><stop offset="0.84" stop-color="#efaf41"/><stop offset="0.88" stop-color="#f5bb49"/><stop offset="1" stop-color="#9d5524"/></linearGradient><linearGradient id="Nueva_muestra_de_degra_copia_4" x1="15.25" y1="14.45" x2="177.21" y2="82.39" gradientUnits="userSpaceOnUse"><stop offset="0" stop-color="#9d5524"/><stop offset="0.01" stop-color="#a76027"/><stop offset="0.03" stop-color="#c47f31"/><stop offset="0.05" stop-color="#db9739"/><stop offset="0.08" stop-color="#eba83f"/><stop offset="0.1" stop-color="#f5b342"/><stop offset="0.14" stop-color="#f8b643"/><stop offset="0.31" stop-color="#dc8827"/><stop offset="0.36" stop-color="#e69d36"/><stop offset="0.44" stop-color="#f6be4c"/><stop offset="0.49" stop-color="#fcca55"/><stop offset="0.55" stop-color="#f9c350"/><stop offset="0.63" stop-color="#f1b040"/><stop offset="0.74" stop-color="#e49128"/><stop offset="0.75" stop-color="#e28d25"/><stop offset="0.87" stop-color="#dc8827"/><stop offset="0.9" stop-color="#ca7926"/><stop offset="0.96" stop-color="#a95f25"/><stop offset="1" stop-color="#9d5524"/></linearGradient></defs><title>Asset 1</title><g id="Layer_2" data-name="Layer 2"><g id="Layer_1-2" data-name="Layer 1"><path class="cls-1" d="M151.89,9.41l-18.63,32.8L109.77,0,86.28,42.21,67.65,9.41H10.85l68.5,118.71,30.42-54.65,30.43,54.65L208.69,9.41ZM109.77,42.07,79,97.29,39.48,26.24H58.36L76.72,57.45l-6.4,10.86,8.4,14.9L109.77,27.4l31.06,55.81,8.4-14.9-6.41-10.86,18.36-31.21h18.88L140.5,97.29Z"/><path class="cls-2" d="M153.06,11.32,133.24,46.2,109.79,4.06h0L86.3,46.2,66.49,11.32H14.54L79.32,124.06l30.45-54.7,30.45,54.7L205,11.32Zm-43.29,34.6L79,101.18l-43.86-77H59.51L79,57.36,72.62,68.25l6.14,10.88,31-55.72,31,55.72,6.14-10.88L140.5,57.36,160,24.15h24.34l-43.87,77Z"/><path class="cls-3" d="M18.4,155.29H15.18l-3.45-10.74L8.28,155.29H5.06L0,139.19H3.22l3.45,10.74,3.45-10.74h3.22l3.45,10.74,3.45-10.74h3.22Z"/><path class="cls-3" d="M35.65,155.29v-16.1h3.22v16.1Z"/><path class="cls-3" d="M65.89,155.29H57a5.08,5.08,0,0,1-1.94-.36,4.56,4.56,0,0,1-1.53-1,4.42,4.42,0,0,1-1-1.53,5.11,5.11,0,0,1-.36-1.94V144a5.17,5.17,0,0,1,.36-2,4.28,4.28,0,0,1,1-1.52,4.59,4.59,0,0,1,1.53-1,5.27,5.27,0,0,1,1.94-.35h8.85v3.22H57A1.42,1.42,0,0,0,55.43,144v1.61H65.89v3.22H55.43v1.61A1.43,1.43,0,0,0,57,152.07h8.85Z"/><path class="cls-3" d="M93.72,155.29H90.5V144a1.42,1.42,0,0,0-1.61-1.61H84.06a1.58,1.58,0,0,0-1.17.43,1.62,1.62,0,0,0-.44,1.18v11.27H79.23v-16.1h3.22v.25a5.49,5.49,0,0,1,1.61-.25h4.83a4.87,4.87,0,0,1,1.92.37,4.39,4.39,0,0,1,1.53,1,4.77,4.77,0,0,1,1,1.53,5,5,0,0,1,.36,1.92Z"/><path class="cls-3" d="M121.55,155.29h-9.66a5.11,5.11,0,0,1-1.94-.36,4.46,4.46,0,0,1-2.53-2.53,5.11,5.11,0,0,1-.36-1.94V144a5.17,5.17,0,0,1,.36-2,4.42,4.42,0,0,1,1-1.52,4.59,4.59,0,0,1,1.53-1,5.31,5.31,0,0,1,1.94-.35h9.66v3.22h-9.66a1.42,1.42,0,0,0-1.61,1.61v6.44a1.43,1.43,0,0,0,1.61,1.61h9.66Z"/><path class="cls-3" d="M146.16,155.29v-6.44h-8v6.44h-3.22v-16.1h3.22v6.44h8v-6.44h3.22v16.1Z"/><path class="cls-3" d="M177.21,155.29H174v-3.22h-8.05v3.22h-3.22V144a5.17,5.17,0,0,1,.36-2,4.42,4.42,0,0,1,1-1.52,4.59,4.59,0,0,1,1.53-1,5.31,5.31,0,0,1,1.94-.35h4.83a4.87,4.87,0,0,1,1.92.37,4.49,4.49,0,0,1,1.53,1,4.77,4.77,0,0,1,1,1.53,5,5,0,0,1,.36,1.92ZM174,148.85V144a1.42,1.42,0,0,0-1.61-1.61h-4.83a1.42,1.42,0,0,0-1.61,1.61v4.83Z"/><path class="cls-3" d="M190.55,155.29v-16.1h3.22v16.1Z"/><path class="cls-3" d="M221.6,155.29h-3.22V144a1.42,1.42,0,0,0-1.61-1.61h-4.83a1.58,1.58,0,0,0-1.17.43,1.62,1.62,0,0,0-.44,1.18v11.27h-3.22v-16.1h3.22v.25a5.49,5.49,0,0,1,1.61-.25h4.83a4.87,4.87,0,0,1,1.92.37,4.59,4.59,0,0,1,1.53,1,4.77,4.77,0,0,1,1,1.53,5,5,0,0,1,.36,1.92Z"/></g></g></svg>